HIERARCHY
ROOT pelvis
{
	OFFSET 0.003123 -0.351407 0.012037
	CHANNELS 6 Xposition Yposition Zposition Zrotation Yrotation Xrotation 
	JOINT left_hip
	{
		OFFSET 0.058189 -0.092763 -0.026001
		CHANNELS 3 Zrotation Yrotation Xrotation
		JOINT left_knee
		{
			OFFSET 0.054695 -0.378753 -0.009396
			CHANNELS 3 Zrotation Yrotation Xrotation
			JOINT left_ankle
			{
				OFFSET -0.043453 -0.403059 -0.031876
				CHANNELS 3 Zrotation Yrotation Xrotation
				JOINT left_foot
				{
					OFFSET 0.047257 -0.057997 0.118216
					CHANNELS 3 Zrotation Yrotation Xrotation
					End Site
					{
						OFFSET 0.000000 0.000000 0.000000
					}
				}
			}
		}
	}
	JOINT right_hip
	{
		OFFSET -0.063267 -0.103908 -0.021250
		CHANNELS 3 Zrotation Yrotation Xrotation
		JOINT right_knee
		{
			OFFSET -0.044210 -0.362380 -0.016824
			CHANNELS 3 Zrotation Yrotation Xrotation
			JOINT right_ankle
			{
				OFFSET 0.015417 -0.410728 -0.020192
				CHANNELS 3 Zrotation Yrotation Xrotation
				JOINT right_foot
				{
					OFFSET -0.038812 -0.058328 0.119049
					CHANNELS 3 Zrotation Yrotation Xrotation
					End Site
					{
						OFFSET 0.000000 0.000000 0.000000
					}
				}
			}
		}
	}
	JOINT spine_1
	{
		OFFSET -0.002763 0.109891 -0.027618
		CHANNELS 3 Zrotation Yrotation Xrotation
		JOINT spine_2
		{
			OFFSET 0.009448 0.131853 -0.005940
			CHANNELS 3 Zrotation Yrotation Xrotation
			JOINT spine_3
			{
				OFFSET -0.011330 0.052235 0.028447
				CHANNELS 3 Zrotation Yrotation Xrotation
				JOINT neck
				{
					OFFSET -0.012164 0.165167 -0.031615
					CHANNELS 3 Zrotation Yrotation Xrotation
					JOINT head
					{
						OFFSET 0.024783 0.160452 0.020737
						CHANNELS 3 Zrotation Yrotation Xrotation
						End Site
						{
							OFFSET 0.000000 0.000000 0.000000
						}
					}
				}
				JOINT left_collar
				{
					OFFSET 0.046364 0.084944 -0.007220
					CHANNELS 3 Zrotation Yrotation Xrotation
					JOINT left_shoulder
					{
						OFFSET 0.119239 0.057728 -0.015461
						CHANNELS 3 Zrotation Yrotation Xrotation
						JOINT left_elbow
						{
							OFFSET 0.254123 -0.072151 -0.042459
							CHANNELS 3 Zrotation Yrotation Xrotation
							JOINT left_wrist
							{
								OFFSET 0.251987 0.023221 -0.002472
								CHANNELS 3 Zrotation Yrotation Xrotation
								JOINT left_index_1
								{
									OFFSET 0.101902 -0.008688 0.019351
									CHANNELS 3 Zrotation Yrotation Xrotation
									JOINT left_index_2
									{
										OFFSET 0.030149 -0.011154 0.001151
										CHANNELS 3 Zrotation Yrotation Xrotation
										JOINT left_index_3
										{
											OFFSET 0.006504 -0.021577 -0.002433
											CHANNELS 3 Zrotation Yrotation Xrotation
											End Site
											{
												OFFSET 0.000000 0.000000 0.000000
											}
										}
									}
								}
								JOINT left_middle_1
								{
									OFFSET 0.109398 -0.006328 -0.003981
									CHANNELS 3 Zrotation Yrotation Xrotation
									JOINT left_middle_2
									{
										OFFSET 0.026472 -0.015218 -0.004641
										CHANNELS 3 Zrotation Yrotation Xrotation
										JOINT left_middle_3
										{
											OFFSET 0.005022 -0.023347 -0.001911
											CHANNELS 3 Zrotation Yrotation Xrotation
											End Site
											{
												OFFSET 0.000000 0.000000 0.000000
											}
										}
									}
								}
								JOINT left_pinky_1
								{
									OFFSET 0.084047 -0.014539 -0.043750
									CHANNELS 3 Zrotation Yrotation Xrotation
									JOINT left_pinky_2
									{
										OFFSET 0.012124 -0.014448 -0.005375
										CHANNELS 3 Zrotation Yrotation Xrotation
										JOINT left_pinky_3
										{
											OFFSET 0.003798 -0.018853 0.000167
											CHANNELS 3 Zrotation Yrotation Xrotation
											End Site
											{
												OFFSET 0.000000 0.000000 0.000000
											}
										}
									}
								}
								JOINT left_ring_1
								{
									OFFSET 0.097444 -0.009268 -0.027345
									CHANNELS 3 Zrotation Yrotation Xrotation
									JOINT left_ring_2
									{
										OFFSET 0.023561 -0.016057 -0.001895
										CHANNELS 3 Zrotation Yrotation Xrotation
										JOINT left_ring_3
										{
											OFFSET 0.004257 -0.023548 0.000814
											CHANNELS 3 Zrotation Yrotation Xrotation
											End Site
											{
												OFFSET 0.000000 0.000000 0.000000
											}
										}
									}
								}
								JOINT left_thumb_1
								{
									OFFSET 0.040636 -0.017977 0.025611
									CHANNELS 3 Zrotation Yrotation Xrotation
									JOINT left_thumb_2
									{
										OFFSET 0.021637 -0.017639 0.011623
										CHANNELS 3 Zrotation Yrotation Xrotation
										JOINT left_thumb_3
										{
											OFFSET 0.024002 -0.008356 0.006548
											CHANNELS 3 Zrotation Yrotation Xrotation
											End Site
											{
												OFFSET 0.000000 0.000000 0.000000
											}
										}
									}
								}
							}
						}
					}
				}
				JOINT right_collar
				{
					OFFSET -0.047695 0.084339 -0.013400
					CHANNELS 3 Zrotation Yrotation Xrotation
					JOINT right_shoulder
					{
						OFFSET -0.102578 0.053524 -0.012669
						CHANNELS 3 Zrotation Yrotation Xrotation
						JOINT right_elbow
						{
							OFFSET -0.271150 -0.036492 -0.026467
							CHANNELS 3 Zrotation Yrotation Xrotation
							JOINT right_wrist
							{
								OFFSET -0.249267 -0.004533 -0.015325
								CHANNELS 3 Zrotation Yrotation Xrotation
								JOINT right_index_1
								{
									OFFSET -0.099881 -0.011783 0.019600
									CHANNELS 3 Zrotation Yrotation Xrotation
									JOINT right_index_2
									{
										OFFSET -0.030148 -0.011154 0.001151
										CHANNELS 3 Zrotation Yrotation Xrotation
										JOINT right_index_3
										{
											OFFSET -0.006505 -0.021577 -0.002432
											CHANNELS 3 Zrotation Yrotation Xrotation
											End Site
											{
												OFFSET 0.000000 0.000000 0.000000
											}
										}
									}
								}
								JOINT right_middle_1
								{
									OFFSET -0.107376 -0.009422 -0.003734
									CHANNELS 3 Zrotation Yrotation Xrotation
									JOINT right_middle_2
									{
										OFFSET -0.026472 -0.015218 -0.004641
										CHANNELS 3 Zrotation Yrotation Xrotation
										JOINT right_middle_3
										{
											OFFSET -0.005022 -0.023347 -0.001911
											CHANNELS 3 Zrotation Yrotation Xrotation
											End Site
											{
												OFFSET 0.000000 0.000000 0.000000
											}
										}
									}
								}
								JOINT right_pinky_1
								{
									OFFSET -0.082027 -0.017634 -0.043503
									CHANNELS 3 Zrotation Yrotation Xrotation
									JOINT right_pinky_2
									{
										OFFSET -0.012123 -0.014448 -0.005374
										CHANNELS 3 Zrotation Yrotation Xrotation
										JOINT right_pinky_3
										{
											OFFSET -0.003798 -0.018852 0.000167
											CHANNELS 3 Zrotation Yrotation Xrotation
											End Site
											{
												OFFSET 0.000000 0.000000 0.000000
											}
										}
									}
								}
								JOINT right_ring_1
								{
									OFFSET -0.095423 -0.012362 -0.027099
									CHANNELS 3 Zrotation Yrotation Xrotation
									JOINT right_ring_2
									{
										OFFSET -0.023561 -0.016057 -0.001895
										CHANNELS 3 Zrotation Yrotation Xrotation
										JOINT right_ring_3
										{
											OFFSET -0.004257 -0.023548 0.000816
											CHANNELS 3 Zrotation Yrotation Xrotation
											End Site
											{
												OFFSET 0.000000 0.000000 0.000000
											}
										}
									}
								}
								JOINT right_thumb_1
								{
									OFFSET -0.038613 -0.021074 0.025861
									CHANNELS 3 Zrotation Yrotation Xrotation
									JOINT right_thumb_2
									{
										OFFSET -0.021636 -0.017639 0.011623
										CHANNELS 3 Zrotation Yrotation Xrotation
										JOINT right_thumb_3
										{
											OFFSET -0.024004 -0.008353 0.006547
											CHANNELS 3 Zrotation Yrotation Xrotation
											End Site
											{
												OFFSET 0.000000 0.000000 0.000000
											}
										}
									}
								}
							}
						}
					}
				}
			}
		}
	}
}
MOTION
Frames: 5
Frame Time: 0.050000
0.287407 0.952705 0.082420 -1.227221 -66.718787 -0.918723 10.918628 2.636778 2.410546 -0.032233 3.603516 22.574669 -20.899970 -8.213374 40.026995 0.000000 0.000000 0.000000 -2.830282 1.484219 -7.040242 9.266990 2.103519 18.670625 5.907401 -1.126318 10.084146 0.000000 0.000000 0.000000 -3.318196 -0.460866 11.383505 -5.017000 -4.534516 -21.157017 1.990174 -17.475486 30.406334 3.835489 0.220150 -9.910826 0.000000 0.000000 0.000000 -3.309403 1.998578 3.257734 -47.586303 -30.321368 9.632742 178.405333 -61.357674 -137.519127 16.624673 -1.855966 -26.457915 7.603301 4.172433 1.348608 23.703129 -1.672450 -21.287323 0.000000 0.000000 0.000000 0.339799 -11.833493 -6.418699 10.316897 -1.074248 -22.104507 0.000000 0.000000 0.000000 17.974062 -25.111292 -39.929182 18.817241 0.075561 -0.826986 0.000000 0.000000 0.000000 -1.700865 -19.122295 -12.691697 24.970666 1.738198 -27.349226 0.000000 0.000000 0.000000 36.121795 27.248407 12.235128 -20.149003 -14.663229 2.181417 0.000000 0.000000 0.000000 -3.413892 -1.425564 -4.405189 50.780153 -18.509748 -28.400045 133.918527 56.485435 75.005251 3.466101 1.026209 14.461853 21.061218 -7.994242 2.137109 -2.536837 -5.662725 22.706591 0.000000 0.000000 0.000000 22.113575 2.645288 -4.985221 9.865924 -4.565827 12.641120 0.000000 0.000000 0.000000 -11.074726 20.152729 -27.051263 12.907323 -1.671696 10.977330 0.000000 0.000000 0.000000 17.803090 9.124050 -6.172046 12.516046 -1.127605 6.983502 0.000000 0.000000 0.000000 -21.029753 -33.848623 36.117717 12.382399 21.616517 -1.003214 0.000000 0.000000 0.000000 
0.257256 0.940134 0.073181 1.800876 -67.300736 -4.000150 9.974090 2.357689 -1.947937 4.150900 5.733159 34.184941 -21.845997 -8.102734 40.399284 0.000000 0.000000 0.000000 -1.959045 1.129961 -5.313253 8.037194 2.322750 20.387477 1.758863 2.210957 2.485521 0.000000 0.000000 0.000000 -4.269563 -0.258337 11.543254 -6.393415 -4.474879 -22.105707 3.940677 -18.098181 30.811608 3.087555 0.481891 -11.138030 0.000000 0.000000 0.000000 -5.081819 3.711493 3.103049 -50.080999 -30.169836 10.038096 177.505008 -63.819934 -137.749485 15.489117 -4.739503 -25.113126 5.300261 4.024535 1.199140 1.837126 -5.157300 -24.016974 0.000000 0.000000 0.000000 -4.967549 -11.564752 -6.231122 -3.195716 -6.096214 -28.161638 0.000000 0.000000 0.000000 12.592023 -27.023535 -40.658390 10.594822 0.096861 -0.014974 0.000000 0.000000 0.000000 -7.316641 -20.328841 -12.014275 12.379131 -2.767923 -28.106993 0.000000 0.000000 0.000000 26.999306 23.729120 8.190920 -17.060846 -13.369536 0.877520 0.000000 0.000000 0.000000 -2.156175 0.458932 -4.281619 48.086138 -17.539011 -25.971058 128.355722 58.599760 69.070069 4.803273 2.453903 21.056576 20.921942 -7.138170 1.656989 -13.535607 -2.354797 22.125794 0.000000 0.000000 0.000000 19.943663 4.560392 -5.777942 3.148201 -4.372381 18.457836 0.000000 0.000000 0.000000 -17.092041 23.242662 -27.674830 17.628456 0.117290 13.319265 0.000000 0.000000 0.000000 14.566224 10.093343 -6.686995 9.010450 -1.395839 13.711241 0.000000 0.000000 0.000000 -21.497714 -33.303568 35.835436 13.535986 23.290965 -0.881923 0.000000 0.000000 0.000000 
0.226162 0.922083 0.063942 3.908490 -69.863929 -5.561739 8.795978 2.644889 -9.137300 12.221470 7.874332 48.756407 -19.485514 -6.464290 38.776095 0.000000 0.000000 0.000000 -2.633453 1.268600 -5.008179 11.394555 2.905254 22.752474 -4.416428 2.224508 -4.582684 0.000000 0.000000 0.000000 -5.131663 -0.016050 11.675578 -5.869840 -4.449811 -21.467715 4.416684 -17.272130 30.148838 4.529378 0.733842 -12.541967 0.000000 0.000000 0.000000 -7.447050 6.700214 1.897284 -47.083779 -26.966713 7.159282 178.122149 -65.638997 -139.651746 14.870097 -7.384375 -25.387844 3.297396 1.093107 0.227387 8.758955 -4.420362 -25.002836 0.000000 0.000000 0.000000 -4.542919 -13.525858 -7.163255 3.951979 -3.899864 -23.893018 0.000000 0.000000 0.000000 7.731885 -26.371296 -37.243833 13.749094 0.174739 0.592111 0.000000 0.000000 0.000000 -8.090543 -18.666606 -10.827881 14.808988 -1.566664 -25.305992 0.000000 0.000000 0.000000 24.154484 22.328724 8.039510 -17.774174 -13.818037 1.310678 0.000000 0.000000 0.000000 0.039761 2.159079 -5.237743 47.517861 -14.879883 -23.673587 123.398633 62.400554 68.431925 5.106401 3.765290 19.888316 20.982891 -6.134858 1.477416 -8.599495 -6.588704 29.948712 0.000000 0.000000 0.000000 19.921160 4.979688 -5.855221 11.356455 -8.783838 23.847706 0.000000 0.000000 0.000000 -17.640070 22.057255 -24.049626 31.200837 -0.784044 12.413179 0.000000 0.000000 0.000000 13.650943 9.305218 -6.145713 20.183436 -3.457834 14.311305 0.000000 0.000000 0.000000 -19.660520 -34.590779 37.296898 9.198521 22.784823 -2.826243 0.000000 0.000000 0.000000 
0.207317 0.903629 0.057343 4.664539 -72.123611 -8.060589 8.161761 3.596036 -14.617331 20.325713 8.319918 61.286363 -16.185639 -6.167161 32.691506 0.000000 0.000000 0.000000 -2.708023 1.156445 -2.993159 13.618939 3.395626 24.664583 -9.668717 1.706714 -10.395515 0.000000 0.000000 0.000000 -5.360270 0.108631 13.742980 -5.801057 -4.113007 -19.209101 5.679585 -15.945782 29.076534 5.081176 0.434319 -11.229577 0.000000 0.000000 0.000000 -8.911332 7.084082 2.177261 -44.570067 -23.876076 4.533671 173.395535 -69.442423 -134.793007 13.129751 -8.027571 -22.470273 2.690268 2.168657 0.604647 10.158107 -4.362119 -24.479864 0.000000 0.000000 0.000000 -1.788621 -13.913250 -7.545245 6.634717 -3.264013 -22.254229 0.000000 0.000000 0.000000 13.191324 -26.325024 -38.923789 11.172055 0.284657 1.016483 0.000000 0.000000 0.000000 -4.337603 -19.782473 -12.403430 14.487181 -1.172422 -23.635551 0.000000 0.000000 0.000000 22.973206 22.674681 9.808304 -17.377923 -12.638692 1.502131 0.000000 0.000000 0.000000 1.249173 5.676514 -3.481072 44.095699 -8.168727 -18.643301 119.812154 70.213683 72.556529 4.345166 6.310761 19.510156 20.244572 -4.901950 1.196638 -5.361549 -6.185643 22.973844 0.000000 0.000000 0.000000 19.586721 8.697155 -7.313329 12.411406 -7.587461 18.810783 0.000000 0.000000 0.000000 -20.810732 24.517000 -27.721463 27.150224 0.360347 8.292585 0.000000 0.000000 0.000000 12.569413 13.617261 -8.344925 19.267186 -2.338627 10.037898 0.000000 0.000000 0.000000 -13.104965 -32.388127 33.282361 7.521523 22.606379 -3.628530 0.000000 0.000000 0.000000 
0.179050 0.893072 0.049423 10.286723 -75.685358 -14.775023 4.960068 3.875552 -19.463490 25.603616 8.373665 68.353794 -11.000125 -11.531551 12.867049 0.000000 0.000000 0.000000 -4.130682 1.543526 -1.615174 15.740435 4.121174 27.576844 -10.812382 3.845671 -13.297846 0.000000 0.000000 0.000000 -5.537546 0.292797 15.038219 -3.671643 -4.329209 -18.819909 3.283994 -14.457468 29.415595 5.376987 0.371622 -11.284197 0.000000 0.000000 0.000000 -10.012554 8.471778 1.634579 -41.031837 -19.963338 2.249022 172.274949 -75.439990 -136.371823 13.691581 -7.544739 -18.250023 1.092733 2.737035 0.817186 3.590246 -4.758147 -23.215790 0.000000 0.000000 0.000000 -3.593405 -14.390989 -7.769338 -3.302140 -5.547525 -25.726545 0.000000 0.000000 0.000000 16.384058 -28.585430 -44.189727 7.178010 -0.353940 -2.411351 0.000000 0.000000 0.000000 -4.409060 -23.058372 -14.459337 8.626924 -2.806010 -25.097562 0.000000 0.000000 0.000000 22.974127 24.857413 13.638620 -15.717463 -15.209406 0.483046 0.000000 0.000000 0.000000 2.399215 9.378020 -2.090455 42.349669 -2.393535 -15.987365 124.953787 74.964194 83.109769 1.333785 6.276463 19.984537 19.073772 -4.520860 1.134112 -10.532538 -3.123173 19.306608 0.000000 0.000000 0.000000 15.952015 9.710857 -7.225822 5.919596 -3.714728 12.149692 0.000000 0.000000 0.000000 -22.231801 25.344162 -30.194748 3.741190 -1.315493 12.127288 0.000000 0.000000 0.000000 8.562711 15.234058 -9.318911 6.474672 -0.554277 4.876470 0.000000 0.000000 0.000000 -9.430031 -30.089082 29.555942 8.783452 19.978454 -2.498794 0.000000 0.000000 0.000000 
